<svg xmlns="http://www.w3.org/2000/svg" width="110" height="110" viewBox="0 0 110 110"><g transform="translate(-1571 -3459)"><g transform="translate(1578 3467)"><path d="M37.607,88.42,22.5,103.527A32.313,32.313,0,0,0,38.03,157.849a32.316,32.316,0,0,1-9.765-52.4L41.451,92.264l1.922-1.922,8.318-8.32-3.844-3.844Z" transform="translate(-11.896 -65.218)" fill="#d4e1f4"/><path d="M77.783,106.418a1.153,1.153,0,0,0-1.631,0L50.8,131.767a14.481,14.481,0,1,1-20.48-20.479L55.673,85.939a1.153,1.153,0,0,0,0-1.631L43.88,72.516a1.153,1.153,0,0,0-1.631,0L16.9,97.864A33.464,33.464,0,0,0,64.226,145.19l25.35-25.349a1.153,1.153,0,0,0,0-1.631ZM43.065,74.962,53.226,85.123l-8.61,8.61L34.456,83.571Zm19.53,68.6A31.158,31.158,0,0,1,18.531,99.5L32.824,85.2,42.986,95.364,28.693,109.657A16.788,16.788,0,1,0,52.434,133.4L66.727,119.1l10.162,10.161Zm15.924-15.924L68.358,117.474l8.61-8.61,10.161,10.162Z" transform="translate(-7.115 -60.371)" fill="#0635c9"/><path d="M29.033,242.036h2.307a26.753,26.753,0,0,1,7.887-19.041L37.6,221.364a29.045,29.045,0,0,0-8.563,20.672Z" transform="translate(-24.819 -180.881)" fill="#0635c9"/><path d="M0,0H3.414V2.306H0Z" transform="translate(15.036 38.215) rotate(-45)" fill="#0635c9"/><g transform="translate(40.939 0)"><path d="M249.717,41.557c.2-.2.315-.216.683-.257a3.152,3.152,0,0,0,2.979-2.978c.041-.369.053-.481.257-.684s.315-.216.683-.257a3.1,3.1,0,0,0,2.06-.919l-1.631-1.631c-.2.2-.315.216-.683.257a3.151,3.151,0,0,0-2.979,2.978c-.041.369-.053.481-.257.684s-.315.216-.684.257a3.152,3.152,0,0,0-2.979,2.979c-.041.369-.053.481-.258.684s-.315.216-.684.258a3.1,3.1,0,0,0-2.06.919l1.631,1.631c.2-.2.316-.216.685-.258a3.152,3.152,0,0,0,2.979-2.979C249.5,41.873,249.513,41.761,249.717,41.557Z" transform="translate(-239.537 -30.204)" fill="#1ae5be"/><path d="M225.644,17.482c.2-.2.315-.216.683-.257a3.152,3.152,0,0,0,2.979-2.978c.041-.368.053-.481.257-.684s.315-.216.683-.257a3.1,3.1,0,0,0,2.06-.918l-1.631-1.631c-.2.2-.315.216-.683.257a3.151,3.151,0,0,0-2.979,2.979c-.041.368-.053.481-.257.684s-.315.216-.683.257a3.152,3.152,0,0,0-2.979,2.979c-.041.369-.053.481-.258.684s-.316.217-.684.258a3.1,3.1,0,0,0-2.06.919l1.631,1.631c.2-.2.316-.216.684-.258a3.154,3.154,0,0,0,2.979-2.979C225.427,17.8,225.44,17.687,225.644,17.482Z" transform="translate(-220.091 -10.757)" fill="#1ae5be"/><path d="M278.135,59.162a3.152,3.152,0,0,0-2.979,2.979c-.041.369-.053.481-.257.684s-.315.216-.683.257a3.152,3.152,0,0,0-2.979,2.979c-.041.369-.053.481-.257.684s-.316.216-.684.257a3.1,3.1,0,0,0-2.061.919l1.631,1.631c.2-.2.315-.217.684-.258a3.152,3.152,0,0,0,2.979-2.979c.041-.369.053-.481.258-.684s.315-.216.684-.257a3.152,3.152,0,0,0,2.979-2.979c.041-.369.053-.481.257-.684s.315-.216.683-.257a3.1,3.1,0,0,0,2.06-.918L278.818,58.9c-.2.2-.315.216-.683.257Z" transform="translate(-258.979 -49.65)" fill="#1ae5be"/><path d="M421.143,212.978c.2-.2.315-.216.683-.257a3.152,3.152,0,0,0,2.979-2.979c.041-.369.053-.481.257-.684s.315-.216.683-.257a3.1,3.1,0,0,0,2.06-.919l-1.631-1.631c-.2.2-.315.216-.683.257a3.151,3.151,0,0,0-2.979,2.978c-.041.369-.053.481-.257.684s-.315.216-.683.257a3.152,3.152,0,0,0-2.979,2.979c-.041.369-.053.481-.258.684s-.315.216-.684.258a3.1,3.1,0,0,0-2.06.919l1.631,1.631c.2-.2.316-.216.685-.258a3.154,3.154,0,0,0,2.979-2.979C420.927,213.294,420.939,213.182,421.143,212.978Z" transform="translate(-378.012 -168.674)" fill="#1ae5be"/><path d="M397.067,188.9c.2-.2.315-.216.683-.257a3.151,3.151,0,0,0,2.979-2.979c.041-.368.053-.481.257-.684s.315-.216.683-.257a3.1,3.1,0,0,0,2.06-.918l-1.631-1.631c-.2.2-.315.216-.683.257a3.152,3.152,0,0,0-2.979,2.979c-.041.368-.053.48-.257.684s-.315.216-.683.257a3.152,3.152,0,0,0-2.979,2.979c-.041.369-.053.481-.257.684s-.316.217-.685.258a3.1,3.1,0,0,0-2.06.919l1.631,1.63c.2-.2.316-.216.684-.257a3.154,3.154,0,0,0,2.979-2.979c.042-.369.054-.48.258-.684Z" transform="translate(-358.564 -149.226)" fill="#1ae5be"/><path d="M449.56,230.59a3.151,3.151,0,0,0-2.979,2.979c-.041.369-.053.481-.257.684s-.315.216-.683.257a3.152,3.152,0,0,0-2.979,2.979c-.041.369-.053.481-.258.684s-.315.217-.684.258a3.1,3.1,0,0,0-2.06.919l1.631,1.631c.2-.2.315-.217.684-.258a3.154,3.154,0,0,0,2.979-2.979c.041-.369.053-.481.258-.685s.315-.216.683-.257a3.152,3.152,0,0,0,2.979-2.979c.041-.369.053-.481.257-.684s.315-.216.683-.257a3.1,3.1,0,0,0,2.06-.919l-1.631-1.631C450.039,230.537,449.928,230.549,449.56,230.59Z" transform="translate(-397.452 -188.126)" fill="#1ae5be"/></g></g><rect width="110" height="110" transform="translate(1571 3459)" fill="none"/></g></svg>