<svg xmlns="http://www.w3.org/2000/svg" width="110" height="110" viewBox="0 0 110 110"><g transform="translate(-1571 -3611)"><g transform="translate(1587 3624)"><path d="M349.778,46.373a11.213,11.213,0,1,0,0,21.675,11.215,11.215,0,0,1,0-21.675Z" transform="translate(-281.475 -44.844)" fill="#d4e1f4"/><path d="M73.78,198.042a11.213,11.213,0,1,0,0,21.673,11.214,11.214,0,0,1,0-21.673Z" transform="translate(-58.531 -167.358)" fill="#d4e1f4"/><path d="M349.778,349.7a11.213,11.213,0,1,0,0,21.675,11.215,11.215,0,0,1,0-21.675Z" transform="translate(-281.475 -289.867)" fill="#d4e1f4"/><path d="M382.446,68.572a5.052,5.052,0,0,1,1.623-.266V66a7.353,7.353,0,0,0-2.363.388Z" transform="translate(-318.65 -61.002)" fill="#0635c9"/><path d="M355.667,78.837h2.307a5.067,5.067,0,0,1,2.19-4.169l-1.311-1.9A7.374,7.374,0,0,0,355.667,78.837Z" transform="translate(-297.616 -66.471)" fill="#0635c9"/><g transform="translate(19.361 12.477)"><path d="M0,0H38.155V2.307H0Z" transform="matrix(0.867, -0.499, 0.499, 0.867, 2.497, 23.228)" fill="#1ae5be"/><path d="M0,0H39.649V2.307H0Z" transform="matrix(0.867, -0.499, 0.499, 0.867, 0, 19.785)" fill="#1ae5be"/><path d="M0,0H2.307V39.671H0Z" transform="matrix(0.499, -0.867, 0.867, 0.499, 0, 38.304)" fill="#1ae5be"/><path d="M0,0H2.307V38.13H0Z" transform="matrix(0.499, -0.867, 0.867, 0.499, 2.575, 34.904)" fill="#1ae5be"/></g><path d="M342.033,64.732a12.366,12.366,0,1,0-12.366-12.366A12.366,12.366,0,0,0,342.033,64.732Zm0-22.426a10.06,10.06,0,1,1-10.06,10.06,10.06,10.06,0,0,1,10.06-10.06Z" transform="translate(-276.614 -39.999)" fill="#0635c9"/><path d="M342.032,343.333A12.366,12.366,0,1,0,354.4,355.7,12.366,12.366,0,0,0,342.032,343.333Zm0,22.426a10.06,10.06,0,1,1,10.06-10.06A10.06,10.06,0,0,1,342.032,365.759Z" transform="translate(-276.612 -285.026)" fill="#0635c9"/><path d="M66.033,191.667A12.366,12.366,0,1,0,78.4,204.033,12.366,12.366,0,0,0,66.033,191.667Zm0,22.426a10.06,10.06,0,1,1,10.06-10.06A10.06,10.06,0,0,1,66.033,214.093Z" transform="translate(-53.667 -162.513)" fill="#0635c9"/></g><rect width="110" height="110" transform="translate(1571 3611)" fill="none"/></g></svg>