<?xml version="1.0" encoding="utf-8"?>
<!-- Generator: Adobe Illustrator 24.3.0, SVG Export Plug-In . SVG Version: 6.00 Build 0)  -->
<svg version="1.1" id="Layer_1" xmlns="http://www.w3.org/2000/svg" xmlns:xlink="http://www.w3.org/1999/xlink" x="0px" y="0px"
	 viewBox="0 0 110 30" style="enable-background:new 0 0 110 30;" xml:space="preserve">
<style type="text/css">
	.st0{fill:#3E3C49;}
</style>
<g>
	<path class="st0" d="M59.9,2.8c3.2,0,6,0,8.9,0c0,1.1,0,1.8,0,3.2c-1.6,0-3.3,0-5,0c0,2.5,0,4.9,0,7.5c1.2,0,2.4,0,3.4,0
		c0,1.2,0,2.1,0,3.3c-1.2,0-2.2,0-3.4,0c0,2.7,0,5.2,0,7.9c1.7,0,3.3,0,5,0c0,1.1,0,1.8,0,3.1c-4.6,0-9.2,0-13.8,0c0-1.2,0-2,0-3.1
		c1.6,0,3.2,0,4.9,0C59.9,17.3,59.9,10.2,59.9,2.8z"/>
	<path class="st0" d="M50.7,27.7c-3.2,0-6,0-8.9,0c0-1.1,0-1.8,0-3.2c1.6,0,3.3,0,5,0c0-2.5,0-4.9,0-7.5c-1.2,0-2.4,0-3.4,0
		c0-1.2,0-2.1,0-3.3c1.2,0,2.2,0,3.4,0c0-2.7,0-5.2,0-7.9c-1.7,0-3.3,0-5,0c0-1.1,0-1.8,0-3.1c4.6,0,9.2,0,13.8,0c0,1.2,0,2,0,3.1
		c-1.6,0-3.2,0-4.9,0C50.7,13.2,50.7,20.4,50.7,27.7z"/>
	<g>
		<path class="st0" d="M91,13.6v14.3h13V14.8l0-4c-0.7-5.5-4.9-8.1-9.1-8.1h-2.1v3.6h2.1c4,0,5.1,2.8,5.5,4.6v2.6H91z M100.4,24.8
			l-5.7,0l0-7.8l5.7,0L100.4,24.8z"/>
	</g>
	<g>
		<path class="st0" d="M19.5,17V2.7h-13v13.1l0,4c0.7,5.5,4.9,8.1,9.1,8.1h2.1v-3.6h-2.1c-4,0-5.1-2.8-5.5-4.6V17H19.5z M10.2,5.8
			l5.7,0l0,7.8l-5.7,0L10.2,5.8z"/>
	</g>
	<g>
		<path class="st0" d="M28.4,9.2l2,2.6c2.1,2.8,3.7,5.6,3.2,9.1c-0.2,1.1-0.6,2.1-1.2,2.9c-0.6,0.7-1.6,1-2.5,0.7
			c-1.4-0.5-1.9-1.9-2.1-3.1c-0.5-3.1,0.2-5.8,1.9-8.4L27.2,10c-0.2,0.2-0.5,0.5-0.7,0.9c-2.5,3.8-3.6,7.6-2,12.2
			c1,3.1,3.2,4.8,6.6,4.8c2.7-0.1,5.1-2.2,5.8-5c1.1-4.4,0.1-8.3-2.5-11.9c-1.1-1.6-2.2-3.1-3.5-5h6.8V2.7H24.7
			c-0.8,0-1.2,1-0.6,1.5C25.7,5.8,27.1,7.4,28.4,9.2z"/>
	</g>
	<g>
		<path class="st0" d="M82.2,21.4l-2-2.6c-2.1-2.8-3.7-5.6-3.2-9.1c0.2-1.1,0.6-2.1,1.2-2.9c0.6-0.7,1.6-1,2.5-0.7
			c1.4,0.5,1.9,1.9,2.1,3.1c0.5,3.1-0.2,5.8-1.9,8.4l2.4,2.9c0.2-0.2,0.5-0.5,0.7-0.9c2.5-3.8,3.6-7.6,2-12.2
			c-1-3.1-3.2-4.8-6.6-4.8c-2.7,0.1-5.1,2.2-5.8,5c-1.1,4.4-0.1,8.3,2.5,11.9c1.1,1.6,2.2,3.1,3.5,5H73v3.2h12.9
			c0.8,0,1.2-1,0.6-1.5C84.9,24.7,83.4,23.2,82.2,21.4z"/>
	</g>
</g>
</svg>
