<svg xmlns="http://www.w3.org/2000/svg" width="110" height="110" viewBox="0 0 110 110"><g transform="translate(-1568 -3278)"><g transform="translate(1581 3288)"><path d="M50.15,165.617l4.828-11.8L50.923,147H50.85l-7.62,18.627,40.9,46.87-8.163-17.292Z" transform="translate(-42.076 -122.203)" fill="#d4e1f4"/><g transform="translate(0 23.623)"><path d="M78.41,208.316a1.153,1.153,0,0,0,1.738,0l40.9-46.874a1.153,1.153,0,0,0,.2-1.195l-7.62-18.639a1.153,1.153,0,0,0-1.068-.717H46a1.153,1.153,0,0,0-1.068.717l-7.62,18.638a1.153,1.153,0,0,0,.2,1.195Zm21.184-46.479-20.315,43.02-20.315-43.02ZM59.17,159.53,68.21,144.3l9.041,15.225Zm22.137,0L90.347,144.3l9.041,15.225Zm20.838,2.307h15.5L83.864,200.548ZM92.372,143.2h18.086l-9.043,15.229ZM79.279,158.427,70.236,143.2H88.322Zm-22.136,0L48.1,143.2H66.186Zm17.551,42.121L40.916,161.837h15.5Zm43.768-41.018H103.443l8.894-14.979ZM46.221,144.551l8.894,14.979H40.1Z" transform="translate(-37.226 -140.892)" fill="#0635c9"/><path d="M0,0H2.307V3.377H0Z" transform="translate(30.293 24.272) rotate(-14.411)" fill="#0635c9"/><path d="M0,0H2.307V18.489H0Z" transform="matrix(0.968, -0.251, 0.251, 0.968, 31.816, 30.486)" fill="#0635c9"/></g><path d="M249,18h2.307V31.456H249Z" transform="translate(-208.292 -18)" fill="#1ae5be"/><path d="M0,0H2.307V12.635H0Z" transform="translate(19.406 4.712) rotate(-25.72)" fill="#1ae5be"/><path d="M0,0H12.635V2.307H0Z" transform="translate(56.945 15.105) rotate(-64.28)" fill="#1ae5be"/></g><rect width="110" height="110" transform="translate(1568 3278)" fill="none"/></g></svg>