<svg xmlns="http://www.w3.org/2000/svg" width="1050.622" height="1043.873" viewBox="0 0 1050.622 1043.873">
  <g id="proceso" transform="translate(-1482.695 -4837.912)">
    <line id="Line_25" data-name="Line 25" y2="578" transform="translate(2023.5 5046.5)" fill="none" stroke="#707070" stroke-width="1"/>
    <line id="Line_26" data-name="Line 26" x2="603" transform="translate(1721.5 5335.5)" fill="none" stroke="#707070" stroke-width="1"/>
    <circle id="Ellipse_3" data-name="Ellipse 3" cx="119.5" cy="119.5" r="119.5" transform="translate(1904 5216)" fill="#fff"/>
    <g id="_065-flash" data-name="065-flash" transform="translate(1988 5702.016)">
      <path id="Path_201" data-name="Path 201" d="M202.02,348.087,214.472,324.4l3.15-61.4H206.387Z" transform="translate(-174.737 -170.495)" fill="#d4e1f4"/>
      <path id="Path_202" data-name="Path 202" d="M152.4,22,135.17,112.258h11.235L163.633,22Z" transform="translate(-132.923 -19.753)" fill="#d4e1f4"/>
      <path id="Path_203" data-name="Path 203" d="M221.923,66.537H195.552l11.936-47.745A2.247,2.247,0,0,0,205.309,16H148.645a2.247,2.247,0,0,0-2.207,1.825L129.21,107.938a2.247,2.247,0,0,0,2.207,2.669h27.04l-4.247,82.8a2.247,2.247,0,0,0,4.234,1.161L223.913,69.83a2.247,2.247,0,0,0-1.989-3.291Zm-62.7,116.873,3.841-74.935a2.247,2.247,0,0,0-2.244-2.362H134.133L150.5,20.494h51.928L190.494,68.239a2.247,2.247,0,0,0,2.18,2.792h25.532Z" transform="translate(-129.17 -16)" fill="#0635c9"/>
      <g id="Group_32" data-name="Group 32" transform="translate(18.117 12.79)">
        <path id="Path_204" data-name="Path 204" d="M0,0H4.753V4.495H0Z" transform="matrix(0.188, -0.982, 0.982, 0.188, 8.247, 4.667)" fill="#1ae5be"/>
        <path id="Path_205" data-name="Path 205" d="M0,0H37.959V4.495H0Z" transform="matrix(0.188, -0.982, 0.982, 0.188, 0, 47.751)" fill="#1ae5be"/>
      </g>
    </g>
    <g id="Ellipse_2" data-name="Ellipse 2" transform="translate(1686 4998)" fill="none" stroke="#707070" stroke-width="1">
      <circle cx="337" cy="337" r="337" stroke="none"/>
      <circle cx="337" cy="337" r="336.5" fill="none"/>
    </g>
    <g id="_016-document" data-name="016-document" transform="translate(1997 4837.912)">
      <path id="Path_257" data-name="Path 257" d="M33.224,42.014,24,42V173.6h9.224Z" transform="translate(-22.094 -40.256)" fill="#d4e1f4"/>
      <g id="Group_41" data-name="Group 41" transform="translate(0 0)">
        <path id="Path_258" data-name="Path 258" d="M119.194,112.888V57.16a1.845,1.845,0,0,0-.609-1.369L97.633,36.878a1.843,1.843,0,0,0-1.053-.466l-76.936-.083A1.845,1.845,0,0,0,17.8,38.174v131.4a1.845,1.845,0,0,0,1.845,1.845h97.7a1.845,1.845,0,0,0,1.845-1.845V137.626H115.5v30.1H21.49V40.019H94.479V57.233a1.845,1.845,0,0,0,1.845,1.845H115.5v53.809ZM98.168,55.39V42.332l14.465,13.057Z" transform="translate(-17.8 -36.329)" fill="#0635c9"/>
        <path id="Path_259" data-name="Path 259" d="M76,140H98.753v3.69H76Z" transform="translate(-58.105 -108.123)" fill="#0635c9"/>
        <path id="Path_260" data-name="Path 260" d="M76,183h65.186v3.69H76Z" transform="translate(-58.105 -137.902)" fill="#0635c9"/>
        <path id="Path_261" data-name="Path 261" d="M76,225h65.186v3.69H76Z" transform="translate(-58.105 -166.988)" fill="#0635c9"/>
        <path id="Path_262" data-name="Path 262" d="M76,268h65.186v3.69H76Z" transform="translate(-58.105 -196.766)" fill="#0635c9"/>
        <path id="Path_263" data-name="Path 263" d="M76,311h65.186v3.69H76Z" transform="translate(-58.105 -226.544)" fill="#0635c9"/>
        <path id="Path_264" data-name="Path 264" d="M76,353h65.186v3.69H76Z" transform="translate(-58.105 -255.63)" fill="#0635c9"/>
        <path id="Path_265" data-name="Path 265" d="M76,396h65.186v3.69H76Z" transform="translate(-58.105 -285.409)" fill="#0635c9"/>
        <path id="Path_266" data-name="Path 266" d="M48.205,67.222h3.69v4.544h-3.69Z" transform="translate(-38.856 -57.723)" fill="#0635c9"/>
        <path id="Path_267" data-name="Path 267" d="M48.205,93.823h3.69v30.495h-3.69Z" transform="translate(-38.856 -76.145)" fill="#0635c9"/>
      </g>
      <path id="Path_268" data-name="Path 268" d="M347.646,190.376l-13.413-13.412a1.845,1.845,0,0,0-2.609,0L289.488,219.1c-.008.008-.013.017-.021.025l-.445.759-5.592,19a1.845,1.845,0,0,0,2.29,2.29l19-5.592.784-.465,42.136-42.135a1.845,1.845,0,0,0,0-2.61Zm-23.1-1.113,1.511,1.511-31.14,31.141L293.4,220.4Zm4.12,4.12,2.563,2.563-31.14,31.141-2.563-2.563Zm-40.736,43.3.686-2.332L290.258,236Zm6.365-1.872-4.491-4.491,1.887-6.414,9.018,9.018Zm9.916-3.6-1.511-1.512,31.138-31.138,1.512,1.512Zm33.747-33.747-10.8-10.8,5.778-5.778,10.8,10.8Z" transform="translate(-201.703 -133.348)" fill="#1ae5be"/>
    </g>
    <g id="_062-refresh" data-name="062-refresh" transform="matrix(0.966, 0.259, -0.259, 0.966, 1508.5, 5242)">
      <path id="Path_191" data-name="Path 191" d="M136.342,9.067a2.116,2.116,0,0,0-2.277.473l-8.44,8.44A76.394,76.394,0,0,0,0,76.556a2.12,2.12,0,0,0,2.12,2.12h9.1a2.12,2.12,0,0,0,2.12-2.12,63.114,63.114,0,0,1,102.8-49.084l-7.36,7.359a2.12,2.12,0,0,0,1.429,3.618l26.155.863h.071a2.12,2.12,0,0,0,2.12-2.19l-.863-26.156a2.12,2.12,0,0,0-1.341-1.9ZM76.362,9.2A67.39,67.39,0,0,0,9.13,74.436H4.27A72.088,72.088,0,0,1,122.615,20.99l-3.47,3.47A67.224,67.224,0,0,0,76.362,9.2Zm38.862,25.174,18.38-18.38L134.232,35Z" transform="translate(0 0)" fill="#0635c9"/>
      <path id="Path_192" data-name="Path 192" d="M136.426,0h-9.1a2.12,2.12,0,0,0-2.12,2.12A62.914,62.914,0,0,1,22.188,50.611l7.586-7.586a2.12,2.12,0,0,0-1.429-3.617L2.19,38.544A2.12,2.12,0,0,0,0,40.735L.864,66.89a2.12,2.12,0,0,0,3.617,1.429l8.252-8.252A76.172,76.172,0,0,0,62.184,78.18a75.8,75.8,0,0,0,54-22.238A75.653,75.653,0,0,0,138.546,2.12,2.12,2.12,0,0,0,136.426,0ZM4.314,42.857l19.007.627L4.941,61.864Zm108.87,10.087a71.59,71.59,0,0,1-51,21A71.943,71.943,0,0,1,15.743,57.057l3.434-3.434a66.938,66.938,0,0,0,90.528-4.1A66.651,66.651,0,0,0,129.416,4.24h4.86a71.438,71.438,0,0,1-21.093,48.7Z" transform="translate(14.178 74.436)" fill="#1ae5be"/>
    </g>
    <g id="_042-pen_tool" data-name="042-pen tool" transform="translate(2383.724 5247)">
      <path id="Path_269" data-name="Path 269" d="M158.23,251.852l16.412,41.635h-6.921v19.5h10.636v-19.5h6.959l-16.45-41.677L198.21,217.1l-5.318-6.283Z" transform="translate(-118.089 -138.461)" fill="#d4e1f4"/>
      <g id="Group_42" data-name="Group 42" transform="translate(38.012 70.241)">
        <path id="Path_270" data-name="Path 270" d="M225.3,246.637,190.64,205.609a2.127,2.127,0,0,0-3.25,0l-34.664,41.028a2.127,2.127,0,0,0-.355,2.153l15.3,38.817h-3.843a2.127,2.127,0,0,0-2.127,2.127v19.5a2.127,2.127,0,0,0,2.127,2.127H214.2a2.127,2.127,0,0,0,2.127-2.127v-19.5a2.127,2.127,0,0,0-2.127-2.127h-2.75l14.229-38.866a2.127,2.127,0,0,0-.373-2.1Zm-36.289,4.212a4.612,4.612,0,1,1-4.612,4.612A4.612,4.612,0,0,1,189.016,250.849Zm23.055,56.257h-46.11V291.862h46.11Zm-5.153-19.5H172.25l-15.454-39.2L186.888,212.8v34.059a8.866,8.866,0,1,0,4.254,0V212.8l30.115,35.644Z" transform="translate(-152.224 -204.854)" fill="#0635c9"/>
        <path id="Path_271" data-name="Path 271" d="M0,0H4.255V4.4H0Z" transform="translate(13.266 47.791) rotate(-21.535)" fill="#0635c9"/>
        <path id="Path_272" data-name="Path 272" d="M0,0H4.254V25.372H0Z" transform="translate(16.214 55.246) rotate(-21.535)" fill="#0635c9"/>
      </g>
      <path id="Path_273" data-name="Path 273" d="M183.058,9.33a11.563,11.563,0,0,0-11.329,9.322h-38v-9.8A2.127,2.127,0,0,0,131.6,6.729H107.752a2.127,2.127,0,0,0-2.127,2.127v9.8H67.892a11.55,11.55,0,1,0,.034,4.254h33.891A34.549,34.549,0,0,0,86.664,51.426V61.838h-9.1a2.127,2.127,0,0,0-2.127,2.127V87.811a2.127,2.127,0,0,0,2.127,2.127H101.41a2.127,2.127,0,0,0,2.127-2.127V63.965a2.127,2.127,0,0,0-2.127-2.127H90.916V51.425a30.28,30.28,0,0,1,14.706-25.909V32.7a2.127,2.127,0,0,0,2.127,2.127H131.6a2.127,2.127,0,0,0,2.127-2.127V25.517a30.272,30.272,0,0,1,14.706,25.91V61.838H137.935a2.127,2.127,0,0,0-2.127,2.127V87.811a2.127,2.127,0,0,0,2.127,2.127h23.851a2.127,2.127,0,0,0,2.127-2.127V63.965a2.127,2.127,0,0,0-2.127-2.127h-9.1V51.425a34.538,34.538,0,0,0-15.152-28.519h34.16A11.543,11.543,0,1,0,183.058,9.33ZM56.564,28.165a7.291,7.291,0,1,1,7.291-7.291A7.29,7.29,0,0,1,56.564,28.165ZM99.283,85.684H79.692V66.092H99.283Zm60.376,0H140.066V66.092h19.593ZM129.472,30.576H109.879V10.983h19.593Zm53.585-2.411a7.291,7.291,0,1,1,7.29-7.29,7.291,7.291,0,0,1-7.29,7.29Z" transform="translate(-45.007 -6.729)" fill="#1ae5be"/>
    </g>
    <text id="TEST" transform="translate(1894 5733)" fill="#575757" font-size="32" font-family="HelveticaNeue-Bold, Helvetica Neue" font-weight="700"><tspan x="0" y="0">TEST</tspan></text>
    <text id="PLAN" transform="translate(1891 4976)" fill="#575757" font-size="32" font-family="HelveticaNeue-Bold, Helvetica Neue" font-weight="700"><tspan x="0" y="0">PLAN</tspan></text>
    <text id="LAUNCH" transform="translate(1494 4976)" fill="#575757" font-size="32" font-family="HelveticaNeue-Bold, Helvetica Neue" font-weight="700"><tspan x="0" y="0">LAUNCH</tspan></text>
    <text id="CREATE" transform="translate(2395 5489)" fill="#575757" font-size="32" font-family="HelveticaNeue-Bold, Helvetica Neue" font-weight="700"><tspan x="0" y="0">CREATE</tspan></text>
    <text id="REVIEW" transform="translate(1500 5489)" fill="#575757" font-size="32" font-family="HelveticaNeue-Bold, Helvetica Neue" font-weight="700"><tspan x="0" y="0">REVIEW</tspan></text>
    <g id="_068-compass" data-name="068-compass" transform="translate(1906.635 5230.263)">
      <path id="Path_281" data-name="Path 281" d="M150.721,110.4a63.836,63.836,0,0,0-7.192-.41,63.159,63.159,0,1,0,0,126.318,63.84,63.84,0,0,0,7.192-.41,63.16,63.16,0,0,1,0-125.5Z" transform="translate(-27.147 -65.067)" fill="#d4e1f4"/>
      <path id="Path_282" data-name="Path 282" d="M124.959,163.845A51.385,51.385,0,0,0,113.383,196.3H117.7a46.988,46.988,0,0,1,37.1-45.934l-.9-4.221a51.452,51.452,0,0,0-28.942,17.7Z" transform="translate(-48.288 -88.223)" fill="#0635c9"/>
      <path id="Path_283" data-name="Path 283" d="M241.805,147.56a47.709,47.709,0,0,1,4.826-.245V143a52.046,52.046,0,0,0-5.261.267Z" transform="translate(-130.25 -86.206)" fill="#0635c9"/>
      <path id="Path_284" data-name="Path 284" d="M229.019,200.707l-38.594,18.31a2.158,2.158,0,0,0-1.025,1.025L171.09,258.637a2.158,2.158,0,0,0,2.874,2.874l38.594-18.31a2.158,2.158,0,0,0,1.025-1.025l18.309-38.595a2.158,2.158,0,0,0-2.874-2.874Zm-37.108,24.108,15.874,15.874-30.2,14.328Zm19.01,12.907-16.042-16.041L225.4,207.2Z" transform="translate(-85.11 -123.028)" fill="#1ae5be"/>
      <path id="Path_285" data-name="Path 285" d="M236.4,32.03V21.294h5.691a2.158,2.158,0,0,0,2.158-2.158V10.542a2.158,2.158,0,0,0-2.158-2.158H216.3a2.158,2.158,0,0,0-2.158,2.158v8.595a2.158,2.158,0,0,0,2.158,2.158H222V32.03h4.315V21.294h5.775V32.03ZM218.462,12.7h21.471v4.279H218.462Z" transform="translate(-112.816)" fill="#1ae5be"/>
      <path id="Path_286" data-name="Path 286" d="M116.382,67.616a78.4,78.4,0,1,0,55.434,22.962,78.4,78.4,0,0,0-55.434-22.962Zm65.277,76.238A65.075,65.075,0,0,0,164.043,101.4l6.2-6.2a73.811,73.811,0,0,1,20.187,48.65ZM71.772,193.674a65.073,65.073,0,0,0,42.452,17.615v8.77a73.812,73.812,0,0,1-48.65-20.187Zm46.768,17.615a65.072,65.072,0,0,0,42.452-17.615l6.2,6.2a73.812,73.812,0,0,1-48.65,20.187Zm-2.158-4.276a61,61,0,1,1,61-61A61.071,61.071,0,0,1,116.382,207.013Zm44.61-108.662a65.074,65.074,0,0,0-42.452-17.615V71.966a73.812,73.812,0,0,1,48.65,20.187ZM114.224,80.736A65.074,65.074,0,0,0,71.772,98.351l-6.2-6.2a73.812,73.812,0,0,1,48.65-20.187ZM62.522,95.2l6.2,6.2A65.075,65.075,0,0,0,51.1,143.855h-8.77A73.812,73.812,0,0,1,62.522,95.2ZM42.335,148.17H51.1a65.077,65.077,0,0,0,17.616,42.453l-6.2,6.2a73.812,73.812,0,0,1-20.187-48.65Zm127.906,48.65-6.2-6.2a65.077,65.077,0,0,0,17.616-42.453h8.77a73.812,73.812,0,0,1-20.187,48.651Z" transform="translate(0 -37.931)" fill="#0635c9"/>
    </g>
    <g id="Polygon_2" data-name="Polygon 2" transform="translate(1766.177 5580.29) rotate(-47)" fill="#ebebeb">
      <path d="M 36.22585296630859 40.50000381469727 L 0.7741485238075256 40.50000381469727 L 18.5 1.215684413909912 L 36.22585296630859 40.50000381469727 Z" stroke="none"/>
      <path d="M 18.5 2.431396484375 L 1.548313140869141 40.00000381469727 L 35.45168685913086 40.00000381469727 L 18.5 2.431396484375 M 18.5 3.814697265625e-06 L 37 41.00000381469727 L 0 41.00000381469727 L 18.5 3.814697265625e-06 Z" stroke="none" fill="#707070"/>
    </g>
    <g id="Polygon_3" data-name="Polygon 3" transform="translate(1668.287 4923.241)" fill="#ebebeb">
      <path d="M 36.22585296630859 40.50000381469727 L 0.7741485238075256 40.50000381469727 L 18.5 1.215684413909912 L 36.22585296630859 40.50000381469727 Z" stroke="none"/>
      <path d="M 18.5 2.431396484375 L 1.548313140869141 40.00000381469727 L 35.45168685913086 40.00000381469727 L 18.5 2.431396484375 M 18.5 3.814697265625e-06 L 37 41.00000381469727 L 0 41.00000381469727 L 18.5 3.814697265625e-06 Z" stroke="none" fill="#707070"/>
    </g>
    <g id="Polygon_4" data-name="Polygon 4" transform="translate(2279.364 5089.155) rotate(135)" fill="#ebebeb">
      <path d="M 36.22585296630859 40.50000381469727 L 0.7741485238075256 40.50000381469727 L 18.5 1.215684413909912 L 36.22585296630859 40.50000381469727 Z" stroke="none"/>
      <path d="M 18.5 2.431396484375 L 1.548313140869141 40.00000381469727 L 35.45168685913086 40.00000381469727 L 18.5 2.431396484375 M 18.5 3.814697265625e-06 L 37 41.00000381469727 L 0 41.00000381469727 L 18.5 3.814697265625e-06 Z" stroke="none" fill="#707070"/>
    </g>
    <line id="Line_27" data-name="Line 27" y1="370" transform="translate(1686.5 4964.5)" fill="none" stroke="#707070" stroke-width="1"/>
  </g>
</svg>
