<svg xmlns="http://www.w3.org/2000/svg" width="110" height="110" viewBox="0 0 110 110"><g transform="translate(-1571 -3126)"><g transform="translate(1581 3136)"><path d="M43.948,143.581l3.341-2.425-5.61-5.61,6.559-9.036a33.656,33.656,0,0,1-4.421-10.6l-11.051-1.749V102.793l11.051-1.749a33.629,33.629,0,0,1,4.408-10.6L41.673,81.4l5.613-5.61-3.34-2.425L35.913,81.4l6.559,9.036a33.651,33.651,0,0,0-4.421,10.6L27,102.793v11.364l11.051,1.749a33.629,33.629,0,0,0,4.408,10.6l-6.552,9.036Z" transform="translate(-25.9 -63.357)" fill="#d4e1f4"/><path d="M181.654,404.51l-2.5,1.818a33.628,33.628,0,0,0,7.341,2.6l1.749,11.051h5.767l-1.749-11.051A33.66,33.66,0,0,1,181.654,404.51Z" transform="translate(-148.802 -330.844)" fill="#d4e1f4"/><path d="M192.257,38.051,194.006,27h-5.767L186.49,38.051a33.592,33.592,0,0,0-7.341,2.59l2.5,1.811a33.62,33.62,0,0,1,10.6-4.4Z" transform="translate(-148.802 -25.9)" fill="#d4e1f4"/><g transform="translate(0 0)"><path d="M148.456,122.865a25.591,25.591,0,1,0,25.592,25.591,25.621,25.621,0,0,0-25.592-25.591Zm0,48.876a23.285,23.285,0,1,1,23.285-23.285,23.285,23.285,0,0,1-23.285,23.285Z" transform="translate(-103.336 -103.338)" fill="#0635c9"/><path d="M172.138,115.015l-1.009-2.074a30.643,30.643,0,0,0-3.665,2.109l1.286,1.915A28.32,28.32,0,0,1,172.138,115.015Z" transform="translate(-139.363 -95.321)" fill="#0635c9"/><path d="M109.91,133.643l-1.442-1.8A30.435,30.435,0,0,0,97,155.709h2.307a28.141,28.141,0,0,1,10.6-22.066Z" transform="translate(-82.444 -110.59)" fill="#0635c9"/><path d="M110.541,59.577l-10.261-1.63a34.623,34.623,0,0,0-3.952-9.533L102.433,40a1.153,1.153,0,0,0-.118-1.493L94.28,30.475a1.153,1.153,0,0,0-1.493-.118l-8.411,6.1a34.627,34.627,0,0,0-9.532-3.951L73.215,22.25a1.153,1.153,0,0,0-1.139-.972H60.713a1.153,1.153,0,0,0-1.139.972l-1.63,10.261a34.627,34.627,0,0,0-9.533,3.951L40,30.358a1.153,1.153,0,0,0-1.493.118l-8.035,8.035A1.153,1.153,0,0,0,30.355,40l6.105,8.411a34.616,34.616,0,0,0-3.952,9.533l-10.261,1.63a1.153,1.153,0,0,0-.972,1.139V72.078a1.153,1.153,0,0,0,.972,1.139l10.262,1.63A34.616,34.616,0,0,0,36.46,84.38l-6.1,8.41a1.153,1.153,0,0,0,.118,1.493l8.035,8.035a1.153,1.153,0,0,0,1.493.118l8.411-6.1a34.628,34.628,0,0,0,9.533,3.951l1.63,10.261a1.153,1.153,0,0,0,1.139.972H72.076a1.153,1.153,0,0,0,1.139-.972l1.63-10.261a34.628,34.628,0,0,0,9.533-3.951l8.411,6.1a1.153,1.153,0,0,0,1.493-.118l8.035-8.035a1.153,1.153,0,0,0,.118-1.493l-6.105-8.41a34.623,34.623,0,0,0,3.952-9.533l10.261-1.63a1.153,1.153,0,0,0,.972-1.139V60.715a1.153,1.153,0,0,0-.973-1.139Zm-1.334,11.517-10.053,1.6a1.153,1.153,0,0,0-.944.886,32.341,32.341,0,0,1-4.244,10.238,1.153,1.153,0,0,0,.041,1.294l5.981,8.239-6.642,6.642-8.239-5.981a1.153,1.153,0,0,0-1.295-.041,32.343,32.343,0,0,1-10.238,4.244,1.153,1.153,0,0,0-.886.944l-1.6,10.052H61.7L60.1,99.156a1.153,1.153,0,0,0-.886-.944,32.343,32.343,0,0,1-10.238-4.244,1.153,1.153,0,0,0-1.295.041l-8.239,5.981L32.8,93.348l5.981-8.239a1.153,1.153,0,0,0,.041-1.294,32.346,32.346,0,0,1-4.244-10.239,1.153,1.153,0,0,0-.944-.886l-10.053-1.6V61.7l10.053-1.6a1.153,1.153,0,0,0,.944-.886,32.346,32.346,0,0,1,4.244-10.239,1.153,1.153,0,0,0-.041-1.294L32.8,39.445,39.443,32.8l8.239,5.981a1.153,1.153,0,0,0,1.295.041,32.343,32.343,0,0,1,10.238-4.244,1.153,1.153,0,0,0,.886-.944l1.6-10.052h9.394l1.6,10.052a1.153,1.153,0,0,0,.886.944,32.343,32.343,0,0,1,10.238,4.244,1.153,1.153,0,0,0,1.295-.041L93.345,32.8l6.642,6.642-5.98,8.239a1.153,1.153,0,0,0-.041,1.294A32.341,32.341,0,0,1,98.21,59.217a1.153,1.153,0,0,0,.944.886l10.053,1.6Z" transform="translate(-21.275 -21.278)" fill="#0635c9"/></g><path d="M179.632,161.459A18.173,18.173,0,1,0,197.8,179.632,18.173,18.173,0,0,0,179.632,161.459Zm0,34.039A15.866,15.866,0,1,1,195.5,179.632,15.866,15.866,0,0,1,179.632,195.5Z" transform="translate(-134.513 -134.513)" fill="#1ae5be"/><path d="M218.812,209.963a8.849,8.849,0,1,0,8.849,8.849A8.849,8.849,0,0,0,218.812,209.963Zm0,15.392a6.543,6.543,0,1,1,6.542-6.543A6.543,6.543,0,0,1,218.812,225.355Z" transform="translate(-173.692 -173.694)" fill="#1ae5be"/></g><rect width="110" height="110" transform="translate(1571 3126)" fill="none"/></g></svg>