<svg xmlns="http://www.w3.org/2000/svg" width="110" height="110" viewBox="0 0 110 110"><g transform="translate(-1571 -2810)"><g transform="translate(1585 2819)"><path d="M147.526,91.949a28.012,28.012,0,0,0-4.535-.1c-13.786.809-24.783,12.045-24.831,25.318A24.906,24.906,0,0,0,128.345,137.3,13.189,13.189,0,0,1,133.683,147h5.767a13.19,13.19,0,0,0-5.338-9.709,24.888,24.888,0,0,1-10.186-20.123c.046-12.875,10.4-23.84,23.6-25.224Z" transform="translate(-103.647 -77.516)" fill="#d4e1f4"/><g transform="translate(0 0)"><path d="M159.16,93.381a28.364,28.364,0,0,0-21.078-7.551,27.894,27.894,0,0,0-18.324,8.33,25.815,25.815,0,0,0,3.058,39.178,11.984,11.984,0,0,1,4.874,8.836l2.3-.148a14.285,14.285,0,0,0-5.8-10.54,23.509,23.509,0,0,1-2.785-35.712,25.592,25.592,0,0,1,16.812-7.642,26.062,26.062,0,0,1,19.36,6.927,23.647,23.647,0,0,1,7.578,17.331,23.9,23.9,0,0,1-9.784,19.165,14.313,14.313,0,0,0-5.736,10.469l2.3.154a12.008,12.008,0,0,1,4.819-8.78,25.94,25.94,0,0,0,2.4-40.016Z" transform="translate(-98.805 -72.655)" fill="#0635c9"/><path d="M225.953,234.205a4.088,4.088,0,0,1-2.869-1.143,6.324,6.324,0,0,0-4.281-1.625v2.307a4.088,4.088,0,0,1,2.869,1.143,6.611,6.611,0,0,0,3.128,1.532v23.341h2.307V236.418a6.612,6.612,0,0,0,3.128-1.532,4.09,4.09,0,0,1,2.87-1.143v-2.307a6.325,6.325,0,0,0-4.282,1.625A4.09,4.09,0,0,1,225.953,234.205Z" transform="translate(-184.945 -190.314)" fill="#0635c9"/><path d="M250,17.5h2.307v9.823H250Z" transform="translate(-210.145 -17.5)" fill="#0635c9"/><path d="M418.24,224.839h9.822v2.307H418.24Z" transform="translate(-346.045 -184.984)" fill="#0635c9"/><path d="M42.661,224.839h9.822v2.307H42.661Z" transform="translate(-42.661 -184.984)" fill="#0635c9"/><path d="M0,0H9.822V2.306H0Z" transform="translate(62.238 18.15) rotate(-45)" fill="#0635c9"/><path d="M0,0H9.822V2.306H0Z" transform="translate(11.184 69.189) rotate(-45)" fill="#0635c9"/><path d="M0,0H2.306V9.822H0Z" transform="translate(62.23 63.876) rotate(-45)" fill="#0635c9"/><path d="M0,0H2.306V9.822H0Z" transform="translate(11.191 12.826) rotate(-45)" fill="#0635c9"/><path d="M150.673,112.973a23.733,23.733,0,0,0-10.125,6.113,21.785,21.785,0,0,0-6.384,15.191l2.307.008A19.488,19.488,0,0,1,142.2,120.7a21.42,21.42,0,0,1,9.138-5.517Z" transform="translate(-116.575 -94.621)" fill="#0635c9"/><path d="M237.357,108a24,24,0,0,0-2.6.3l.386,2.274a21.753,21.753,0,0,1,2.349-.268Z" transform="translate(-197.832 -90.604)" fill="#0635c9"/></g><path d="M210.215,372.777H184.647a1.153,1.153,0,0,0-1.153,1.153v4.117a1.153,1.153,0,0,0,1.153,1.153h.685v2.219h-.685a1.153,1.153,0,0,0-1.153,1.153v4.117a1.153,1.153,0,0,0,1.153,1.153h.685v2.911a1.153,1.153,0,0,0,1.153,1.153h.817l1.677,4.658a1.153,1.153,0,0,0,1.085.763H204.8a1.153,1.153,0,0,0,1.085-.763l1.678-4.658h.817a1.153,1.153,0,0,0,1.153-1.153v-2.911h.685a1.153,1.153,0,0,0,1.153-1.153v-4.117a1.153,1.153,0,0,0-1.153-1.153h-.685V379.2h.685a1.153,1.153,0,0,0,1.153-1.153V373.93A1.153,1.153,0,0,0,210.215,372.777ZM185.8,375.084h23.261v1.81H185.8Zm23.261,8.643v1.81H185.8v-1.81Zm-5.075,11.3H190.875l-1.121-3.114h15.355Zm3.236-5.421H187.639v-1.757h19.585Zm0-8.181H187.639V379.2h19.585Z" transform="translate(-156.423 -304.485)" fill="#1ae5be"/></g><rect width="110" height="110" transform="translate(1571 2810)" fill="none"/></g></svg>