<svg xmlns="http://www.w3.org/2000/svg" width="110" height="110" viewBox="0 0 110 110"><g transform="translate(-1571 -2962)"><g transform="translate(1579 2970)"><path d="M18,77.09V90.161h5.767V20H18Z" transform="translate(-16.801 -18.817)" fill="#d4e1f4"/><path d="M104.5,13.848H12.915A1.153,1.153,0,0,0,11.762,15V85.228a1.153,1.153,0,0,0,1.153,1.153H46.968l-2.211,13.952H40.04a1.153,1.153,0,0,0-1.153,1.153v4.3a1.153,1.153,0,0,0,1.153,1.153H77.38a1.153,1.153,0,0,0,1.153-1.153v-4.3a1.153,1.153,0,0,0-1.153-1.153H72.663L70.452,86.381H104.5a1.153,1.153,0,0,0,1.153-1.153V15a1.153,1.153,0,0,0-1.153-1.153Zm-1.153,2.307V71.012H14.069V16.155Zm-27.125,88.48H41.193V102.64H76.227Zm-5.9-4.3H47.092L49.3,86.38H68.116ZM14.069,84.074V73.318h89.283V84.074Z" transform="translate(-11.762 -13.848)" fill="#0635c9"/><path d="M240.287,330.668a3.739,3.739,0,1,0,3.739,3.739A3.739,3.739,0,0,0,240.287,330.668Zm0,5.171a1.432,1.432,0,1,1,1.432-1.432,1.432,1.432,0,0,1-1.432,1.432Z" transform="translate(-193.339 -269.768)" fill="#0635c9"/><g transform="translate(6.825 6.825)"><path d="M126.361,49.355H48.422a1.153,1.153,0,0,0-1.153,1.153V93.872a1.153,1.153,0,0,0,1.153,1.153h77.939a1.153,1.153,0,0,0,1.153-1.153V50.508a1.153,1.153,0,0,0-1.153-1.153Zm-1.153,43.364H49.576V51.662h75.632Z" transform="translate(-47.269 -49.355)" fill="#1ae5be"/><path d="M80.206,80.222h2.307v2.841H80.206Z" transform="translate(-73.875 -74.289)" fill="#1ae5be"/><path d="M80.206,106.823h2.307v18.3H80.206Z" transform="translate(-73.875 -95.776)" fill="#1ae5be"/></g></g><rect width="110" height="110" transform="translate(1571 2962)" fill="none"/></g></svg>